# xmcd
#
# Track frame offsets:
#	183
#	8260
#	36195
#	54470
#	73553
#	93340
#	107495
#	123443
#	147120
#	171605
#	184758
#	199455
#	212803
#	224013
#	243175
#	256030
#
# Disc length: 3674 seconds
#
# Revision: 0
# Processed by: cddbd v1.4PL0 Copyright (c) Steve Scherf et al.
# Submitted via: dBpowerAMP V4.0
#
DISCID=e50e5810
DTITLE=Various Artist - Mama I Want To Sing Cast Recording
DYEAR=1900
DGENRE=Gospel
TTITLE0=The Treasure of Love
TTITLE1=Choir Rehearsal
TTITLE2=You Are My Child
TTITLE3=Faith Can Move a Mountain
TTITLE4=I Know Who Holds Tomorrow
TTITLE5=He'll Be Your Strength
TTITLE6=Gifted Is
TTITLE7=Star Sequence Medley
TTITLE8=Mama, I Want to Sing
TTITLE9=I'll Do Anything
TTITLE10=What Do You Win When You Win
TTITLE11=Take My Hand
TTITLE12=His Eye Is On My Sparrow \ Take My Hand
TTITLE13=Know When to Leave the Party
TTITLE14=Just One Look
TTITLE15=The One Who Will Love Me
EXTD=
EXTT0=
EXTT1=
EXTT2=
EXTT3=
EXTT4=
EXTT5=
EXTT6=
EXTT7=
EXTT8=
EXTT9=
EXTT10=
EXTT11=
EXTT12=
EXTT13=
EXTT14=
EXTT15=
PLAYORDER=
